<?xml version="1.0" encoding="UTF-8"?>
<svg id="Layer_2" data-name="Layer 2" xmlns="http://www.w3.org/2000/svg" viewBox="0 0 785.75 1150.15">
  <defs>
    <style>
      .cls-1 {
        font-family: DINCondensed-Bold, 'DIN Condensed';
        font-size: 276.61px;
        font-weight: 700;
      }

      .cls-2 {
        fill: #020202;
      }

      .cls-3 {
        fill: #ffb600;
      }
    </style>
  </defs>
  <g id="Layer_1-2" data-name="Layer 1">
    <g>
      <path class="cls-2" d="M686.62,406.11c-.07-4.36-2.06-8.46-5.43-11.21l-279.83-227.66c.12-14.54.86-27.21,9-37.84,3.5-4.57,8.34-8.51,13.46-12.68,5.15-4.2,10.48-8.54,15.17-14.04,12.24-14.36,17.41-34.75,13.5-53.21-3.97-18.74-16.65-34.88-33.91-43.17-18.3-8.78-41.65-8.35-62.48,1.16-17.09,7.8-23.95,20.98-30.59,33.72-.31.59-.61,1.18-.92,1.77-2.54,4.85-.83,10.86,3.89,13.63l1.33.78c5.06,2.97,11.59,1.1,14.31-4.11.33-.63.65-1.25.98-1.87,6.02-11.55,9.99-19.18,20.18-23.83,14.94-6.82,31.29-7.32,43.75-1.34,10.97,5.27,19.35,15.93,21.87,27.84,2.52,11.9-.81,25.05-8.71,34.31-3.38,3.97-7.72,7.5-12.3,11.23-5.89,4.8-11.98,9.75-17.06,16.38-12.38,16.17-13.41,34.51-13.55,51.16L56.1,430.02c-3.23,2.63-5.2,6.49-5.43,10.65l-1.72,31.53c-.7,12.8,14.12,20.34,24.06,12.26l56.06-45.6,25.19,212.89,72.7,43.8,32.48-232.76,34.8,264.79,96.28,58.57-.5-556.35,84.51,68.74,91.81,74.68,84.39,68.64,12.34,9.5c9.73,7.92,24.28.86,24.08-11.69l-.53-33.56ZM232.22,355.05l-33.52,196.77-14.97-157.42,55.81-45.4h0s0,0,0,0c-2.43,2.04-7.33,6.06-7.33,6.06ZM315.44,534.59s-18.1-149.42-28.76-223.93h0s48.35-39.36,48.35-39.36h0c-6.13,87.81-19.59,263.29-19.59,263.29Z"/>
      <text class="cls-1" transform="translate(0 1063.85) scale(.95 1)"><tspan x="0" y="0">WEAR</tspan><tspan class="cls-3" x="496.79" y="0">HSE</tspan></text>
      <polygon class="cls-3" points="474.53 298.55 474.53 444.22 566.34 466.97 566.34 373.22 474.53 298.55"/>
      <polygon class="cls-3" points="474.53 549.2 474.53 722.11 566.34 684.53 566.34 534.72 474.53 549.2"/>
    </g>
  </g>
</svg>